<svg width="297" height="189" viewBox="0 0 297 189" fill="none" xmlns="http://www.w3.org/2000/svg">
<path d="M105.911 12.8009H15.7119V103H105.911V12.8009Z" fill="#FFA12E"/>
<path d="M93.6902 93.6902H0V0H93.6902V93.6902ZM3.49099 90.1975H90.1975V3.49102H3.49099V90.1975Z" fill="#3D3D3D"/>
<path d="M204.841 169.584L189.323 151L187 152.94L200.898 169.584L187 186.228L189.323 188.168L204.841 169.584Z" fill="#FFA12E"/>
<path d="M225.947 169.584L210.429 151L208.106 152.94L222.003 169.584L208.106 186.228L210.429 188.168L225.947 169.584Z" fill="#3D3D3D"/>
<path d="M247.052 169.584L231.535 151L229.211 152.94L243.109 169.584L229.211 186.228L231.535 188.168L247.052 169.584Z" fill="#FFA12E"/>
<path d="M296.446 169.808C296.446 159.55 288.101 151.205 277.843 151.205C267.585 151.205 259.24 159.55 259.24 169.808C259.24 180.066 267.585 188.411 277.843 188.411C288.1 188.411 296.446 180.065 296.446 169.808ZM262.267 169.808C262.267 161.219 269.254 154.232 277.843 154.232C286.432 154.232 293.419 161.219 293.419 169.808C293.419 178.397 286.432 185.384 277.843 185.384C269.254 185.384 262.267 178.396 262.267 169.808Z" fill="#3D3D3D"/>
</svg>
