<svg width="509" height="129" viewBox="0 0 509 129" fill="none" xmlns="http://www.w3.org/2000/svg">
<path d="M0 31.9293V57.5409L20.6882 44.6599L0 31.9293Z" fill="#3C3C3C"/>
<path d="M26.3531 31.9293V57.5409L47.0428 44.6599L26.3531 31.9293Z" fill="#FF9500"/>
<path d="M52.7064 31.9293V57.5409L73.3961 44.6599L52.7064 31.9293Z" fill="#3C3C3C"/>
<path d="M79.0596 31.9293V57.5409L99.7492 44.6599L79.0596 31.9293Z" fill="#FF9500"/>
<path d="M105.414 31.9293V57.5409L126.102 44.6599L105.414 31.9293Z" fill="#3C3C3C"/>
<path d="M131.767 31.9293V57.5409L152.457 44.6599L131.767 31.9293Z" fill="#FF9500"/>
<path d="M500.768 32.5146H315.083V128.558H500.768V32.5146Z" fill="#FF9500"/>
<path d="M505.42 87.002L508.985 83.4371L495.318 69.7699L491.753 73.3348L505.42 87.002Z" fill="#3D3D3D"/>
<path d="M508.945 73.3461L505.38 69.7812L491.713 83.4483L495.278 87.0133L508.945 73.3461Z" fill="#3D3D3D"/>
<path d="M469.495 87.0028L473.06 83.4379L459.392 69.7707L455.827 73.3356L469.495 87.0028Z" fill="#3D3D3D"/>
<path d="M473.021 73.3463L469.457 69.7814L455.789 83.4485L459.354 87.0134L473.021 73.3463Z" fill="#3D3D3D"/>
<path d="M433.557 86.9796L437.122 83.4147L423.455 69.7476L419.89 73.3124L433.557 86.9796Z" fill="#3D3D3D"/>
<path d="M437.12 73.3309L433.555 69.7661L419.888 83.4332L423.452 86.9981L437.12 73.3309Z" fill="#3D3D3D"/>
<path d="M397.646 87.0028L401.21 83.4379L387.543 69.7707L383.978 73.3356L397.646 87.0028Z" fill="#3D3D3D"/>
<path d="M401.174 73.345L397.609 69.7801L383.942 83.4472L387.507 87.0122L401.174 73.345Z" fill="#3D3D3D"/>
<path d="M361.721 87.0036L365.286 83.4387L351.618 69.7716L348.053 73.3365L361.721 87.0036Z" fill="#3D3D3D"/>
<path d="M365.251 73.3453L361.686 69.7803L348.019 83.4475L351.583 87.0124L365.251 73.3453Z" fill="#3D3D3D"/>
<path d="M505.435 50.89L509 47.3251L495.333 33.6579L491.768 37.2228L505.435 50.89Z" fill="#3D3D3D"/>
<path d="M508.968 37.1971L505.403 33.6321L491.735 47.2993L495.3 50.8642L508.968 37.1971Z" fill="#3D3D3D"/>
<path d="M469.509 50.8901L473.074 47.3251L459.407 33.658L455.842 37.2229L469.509 50.8901Z" fill="#3D3D3D"/>
<path d="M473.044 37.1979L469.479 33.6329L455.812 47.3001L459.377 50.865L473.044 37.1979Z" fill="#3D3D3D"/>
<path d="M433.57 50.8669L437.135 47.3021L423.468 33.6349L419.903 37.1997L433.57 50.8669Z" fill="#3D3D3D"/>
<path d="M437.141 37.1825L433.576 33.6177L419.909 47.2848L423.474 50.8497L437.141 37.1825Z" fill="#3D3D3D"/>
<path d="M397.659 50.889L401.224 47.324L387.557 33.6569L383.992 37.2218L397.659 50.889Z" fill="#3D3D3D"/>
<path d="M401.195 37.1979L397.63 33.6329L383.963 47.3001L387.528 50.865L401.195 37.1979Z" fill="#3D3D3D"/>
<path d="M361.734 50.889L365.299 47.324L351.631 33.6569L348.066 37.2218L361.734 50.889Z" fill="#3D3D3D"/>
<path d="M365.271 37.1987L361.706 33.6338L348.039 47.301L351.604 50.8659L365.271 37.1987Z" fill="#3D3D3D"/>
<path d="M505.419 17.2531L508.984 13.6882L495.317 0.0210079L491.752 3.58593L505.419 17.2531Z" fill="#3D3D3D"/>
<path d="M508.968 3.58354L505.403 0.0186157L491.735 13.6858L495.3 17.2507L508.968 3.58354Z" fill="#3D3D3D"/>
<path d="M469.494 17.2539L473.059 13.689L459.392 0.0218624L455.827 3.58678L469.494 17.2539Z" fill="#3D3D3D"/>
<path d="M473.044 3.58439L469.479 0.0194702L455.812 13.6866L459.377 17.2516L473.044 3.58439Z" fill="#3D3D3D"/>
<path d="M433.555 17.232L437.12 13.6672L423.452 1.17954e-05L419.888 3.56486L433.555 17.232Z" fill="#3D3D3D"/>
<path d="M437.14 3.56851L433.575 0.00366211L419.908 13.6708L423.473 17.2357L437.14 3.56851Z" fill="#3D3D3D"/>
<path d="M397.645 17.2541L401.21 13.6891L387.543 0.0219845L383.978 3.5869L397.645 17.2541Z" fill="#3D3D3D"/>
<path d="M401.195 3.58445L397.63 0.0195312L383.963 13.6867L387.528 17.2516L401.195 3.58445Z" fill="#3D3D3D"/>
<path d="M361.72 17.2546L365.285 13.6897L351.618 0.0225338L348.053 3.58745L361.72 17.2546Z" fill="#3D3D3D"/>
<path d="M365.271 3.58518L361.706 0.0202637L348.039 13.6874L351.604 17.2523L365.271 3.58518Z" fill="#3D3D3D"/>
</svg>
