<svg width="104" height="55" viewBox="0 0 104 55" fill="none" xmlns="http://www.w3.org/2000/svg">
<path d="M49 9H92.0392C92.5592 9 93.058 9.1753 93.4257 9.48733C93.7934 9.79937 94 10.2226 94 10.6639V34.3361C94 34.7774 93.7934 35.2006 93.4257 35.5127C93.058 35.8247 92.5592 36 92.0392 36H49V9Z" fill="white"/>
<path d="M15.075 34.457C12.2768 34.4206 10.8777 33.0078 10.8777 30.2187V26.1172C10.8777 24.276 10.1667 23.3099 8.74487 23.2187V21.6328C10.1667 21.5417 10.8777 20.5573 10.8777 18.6797V14.6875C10.8777 11.862 12.2768 10.431 15.075 10.3945V12.1445C13.6257 12.181 12.9011 13.0833 12.9011 14.8515V18.8574C12.9011 20.7715 12.2175 21.9473 10.8503 22.3848V22.4394C12.2175 22.8496 12.9011 24.0163 12.9011 25.9394V29.8906C12.9011 30.9023 13.0606 31.6224 13.3796 32.0508C13.7078 32.4883 14.2729 32.7161 15.075 32.7344V34.457Z" fill="white"/>
<path d="M92.7058 23.2187C91.2839 23.3099 90.573 24.276 90.573 26.1172V30.2187C90.573 33.0078 89.1785 34.4206 86.3894 34.457V32.7344C87.1824 32.7161 87.7429 32.4883 88.071 32.0508C88.4083 31.6133 88.5769 30.8932 88.5769 29.8906V25.9394C88.5769 24.0163 89.2559 22.8496 90.614 22.4394V22.3848C89.2559 21.9473 88.5769 20.7715 88.5769 18.8574V14.8515C88.5769 13.0833 87.8477 12.181 86.3894 12.1445V10.3945C89.1785 10.431 90.573 11.862 90.573 14.6875V18.6797C90.573 20.5573 91.2839 21.5417 92.7058 21.6328V23.2187Z" fill="#222222"/>
<path d="M25.9011 24.332C25.9011 26.582 25.3777 28.3047 24.3308 29.5C23.2917 30.6953 21.7839 31.2929 19.8073 31.2929C18.9245 31.2929 18.1081 31.1406 17.3581 30.8359V27.2851C18.0066 27.7773 18.7331 28.0234 19.5378 28.0234C21.2644 28.0234 22.1277 26.7422 22.1277 24.1797V14.1953H25.9011V24.332ZM33.3659 25.2109V31H29.5808V14.1953H35.5105C39.7448 14.1953 41.862 15.9804 41.862 19.5508C41.862 21.2383 41.2527 22.6054 40.0339 23.6523C38.823 24.6914 37.2019 25.2109 35.1706 25.2109H33.3659ZM33.3659 17.1015V22.3398H34.8542C36.8698 22.3398 37.8777 21.457 37.8777 19.6914C37.8777 17.9648 36.8698 17.1015 34.8542 17.1015H33.3659Z" fill="white"/>
<path d="M70.9465 31H68.1809V20.125C68.1809 19.2343 68.2356 18.1445 68.3449 16.8554H68.2981C68.1262 17.5898 67.9738 18.1172 67.841 18.4375L62.8254 31H60.9035L55.8762 18.5312C55.7356 18.164 55.5871 17.6054 55.4309 16.8554H55.384C55.4465 17.5273 55.4778 18.625 55.4778 20.1484V31H52.8996V14.1953H56.8254L61.2434 25.3867C61.5793 26.2461 61.7981 26.8867 61.8996 27.3086H61.9582C62.2473 26.4258 62.4817 25.7695 62.6613 25.3398L67.1613 14.1953H70.9465V31Z" fill="#1E1E1E"/>
<path d="M72.0534 31H75.3112L77.9948 26.5C78.237 26.0859 78.4753 25.7343 78.7097 25.4453C78.9362 25.1484 79.1706 24.9062 79.4128 24.7187C79.6472 24.5312 79.905 24.3945 80.1862 24.3086C80.4675 24.2226 80.7839 24.1797 81.1354 24.1797H82.2604V31H85.0378V14.1953H79.5065C78.7175 14.1953 77.9909 14.289 77.3268 14.4765C76.6628 14.664 76.0847 14.9492 75.5925 15.332C75.1003 15.707 74.7175 16.1797 74.444 16.75C74.1628 17.3125 74.0222 17.9726 74.0222 18.7304C74.0222 19.3242 74.112 19.8711 74.2917 20.3711C74.4636 20.8633 74.7136 21.3047 75.0417 21.6953C75.362 22.0781 75.7526 22.4062 76.2136 22.6797C76.6667 22.9531 77.1784 23.164 77.7487 23.3125V23.3593C77.444 23.5312 77.1784 23.7226 76.9518 23.9336C76.7253 24.1367 76.5104 24.3476 76.3073 24.5664C76.1042 24.7851 75.905 25.0351 75.7097 25.3164C75.5065 25.5898 75.2839 25.9101 75.0417 26.2773L72.0534 31ZM82.2604 16.457V21.9179H79.9401C79.5104 21.9179 79.1159 21.8515 78.7565 21.7187C78.3893 21.5859 78.0729 21.3945 77.8073 21.1445C77.5417 20.8945 77.3347 20.5898 77.1862 20.2304C77.0378 19.8711 76.9636 19.4687 76.9636 19.0234C76.9636 18.2187 77.2175 17.5898 77.7253 17.1367C78.2331 16.6836 78.9636 16.457 79.9167 16.457H82.2604Z" fill="#1E1E1E"/>
<path d="M13.4562 4.01034L90.5669 3.768C93.2809 3.75581 95.8896 4.63462 97.8198 6.21126C99.7499 7.78789 100.844 9.93334 100.86 12.176L101 32.0561C101.015 34.2991 99.9508 36.4551 98.0424 38.0501C96.134 39.6452 93.5372 40.5487 90.8229 40.5619L52.7192 40.7038L37.6035 49.7119L37.5406 40.7805L13.7111 40.8069C10.9962 40.8191 8.38667 39.9397 6.45637 38.3621C4.52607 36.7845 3.43311 34.6379 3.41788 32.3945L3.28137 12.5118C3.26804 10.2697 4.33229 8.11494 6.24032 6.52089C8.14835 4.92684 10.743 4.02386 13.4562 4.01034Z" stroke="white" stroke-width="5" stroke-miterlimit="10"/>
</svg>
